<svg width="16" height="16" viewBox="0 0 16 16" fill="none" xmlns="http://www.w3.org/2000/svg">
<path d="M10.6666 8.60016V11.4002C10.6666 13.7335 9.73331 14.6668 7.39998 14.6668H4.59998C2.26665 14.6668 1.33331 13.7335 1.33331 11.4002V8.60016C1.33331 6.26683 2.26665 5.3335 4.59998 5.3335H7.39998C9.73331 5.3335 10.6666 6.26683 10.6666 8.60016Z" stroke="#06121B" stroke-width="1.5" stroke-linecap="round" stroke-linejoin="round"/>
<path d="M14.6666 4.60016V7.40016C14.6666 9.7335 13.7333 10.6668 11.4 10.6668H10.6666V8.60016C10.6666 6.26683 9.73331 5.3335 7.39998 5.3335H5.33331V4.60016C5.33331 2.26683 6.26665 1.3335 8.59998 1.3335H11.4C13.7333 1.3335 14.6666 2.26683 14.6666 4.60016Z" stroke="#06121B" stroke-width="1.5" stroke-linecap="round" stroke-linejoin="round"/>
</svg>
