<svg width="40" height="40" viewBox="0 0 40 40" fill="none" xmlns="http://www.w3.org/2000/svg">
<circle cx="20" cy="20.0001" r="12.233" fill="#FBF1EC"/>
<path d="M37.3205 10C35.1192 6.18716 31.7212 3.20724 27.6537 1.52241C23.5861 -0.162426 19.0763 -0.458015 14.8236 0.681484C10.5709 1.82098 6.81312 4.33189 4.13293 7.82477C1.45275 11.3177 -6.64787e-07 15.5973 0 20C6.64787e-07 24.4027 1.45275 28.6823 4.13294 32.1752C6.81312 35.6681 10.571 38.179 14.8236 39.3185C19.0763 40.458 23.5861 40.1624 27.6537 38.4776C31.7212 36.7928 35.1192 33.8128 37.3205 30L33.3241 27.6927C31.6307 30.6258 29.0167 32.9181 25.8877 34.2142C22.7587 35.5103 19.2894 35.7377 16.018 34.8611C12.7465 33.9845 9.85577 32.053 7.79399 29.366C5.73221 26.679 4.61466 23.3868 4.61466 20C4.61466 16.6132 5.73221 13.321 7.79399 10.634C9.85576 7.94704 12.7465 6.01548 16.018 5.1389C19.2894 4.26232 22.7587 4.48971 25.8877 5.7858C29.0167 7.08188 31.6307 9.37424 33.3241 12.3073L37.3205 10Z" fill="#D56F3E"/>
</svg>
