<svg width="40" height="41" viewBox="0 0 40 41" fill="none" xmlns="http://www.w3.org/2000/svg">
<circle cx="20" cy="20.5001" r="12.233" fill="#1C1F33"/>
<path d="M37.3205 10.5C35.1192 6.68716 31.7212 3.70724 27.6537 2.02241C23.5861 0.337574 19.0763 0.0419851 14.8236 1.18148C10.5709 2.32098 6.81312 4.83189 4.13293 8.32477C1.45275 11.8177 -6.64787e-07 16.0973 0 20.5C6.64787e-07 24.9027 1.45275 29.1823 4.13294 32.6752C6.81312 36.1681 10.571 38.679 14.8236 39.8185C19.0763 40.958 23.5861 40.6624 27.6537 38.9776C31.7212 37.2928 35.1192 34.3128 37.3205 30.5L33.3241 28.1927C31.6307 31.1258 29.0167 33.4181 25.8877 34.7142C22.7587 36.0103 19.2894 36.2377 16.018 35.3611C12.7465 34.4845 9.85577 32.553 7.79399 29.866C5.73221 27.179 4.61466 23.8868 4.61466 20.5C4.61466 17.1132 5.73221 13.821 7.79399 11.134C9.85576 8.44704 12.7465 6.51548 16.018 5.6389C19.2894 4.76232 22.7587 4.98971 25.8877 6.2858C29.0167 7.58188 31.6307 9.87424 33.3241 12.8073L37.3205 10.5Z" fill="#D56F3E"/>
</svg>
