<svg width="15" height="18" viewBox="0 0 15 18" fill="none" xmlns="http://www.w3.org/2000/svg">
<mask id="mask0_257_67" style="mask-type:alpha" maskUnits="userSpaceOnUse" x="0" y="0" width="15" height="18">
<path fill-rule="evenodd" clip-rule="evenodd" d="M0.500183 0.67627H14.7103V17.2209H0.500183V0.67627Z" fill="white"/>
</mask>
<g mask="url(#mask0_257_67)">
<path fill-rule="evenodd" clip-rule="evenodd" d="M4.31107 1.92627C2.93024 1.92627 1.78357 3.0446 1.75107 4.42377V13.3563C1.72107 14.7738 2.83774 15.9404 4.24191 15.9713H10.9777C12.3686 15.9213 13.4694 14.7738 13.4602 13.3604V5.9496L9.59857 1.92627H4.32107H4.31107ZM4.32107 17.2213H4.21607C2.12274 17.1763 0.456073 15.4363 0.501073 13.3429V4.40877C0.55024 2.34127 2.25691 0.67627 4.30857 0.67627H4.32357H9.86441C10.0344 0.67627 10.1969 0.745436 10.3152 0.867936L14.5369 5.26544C14.6477 5.38127 14.7102 5.5371 14.7102 5.69794V13.3563C14.7236 15.4471 13.0936 17.1463 10.9994 17.2213H4.32107Z" fill="#D56F3E"/>
</g>
<path fill-rule="evenodd" clip-rule="evenodd" d="M14.0816 6.48699H11.7866C10.2607 6.48283 9.02158 5.23949 9.02158 3.71616V1.29199C9.02158 0.946992 9.30158 0.666992 9.64658 0.666992C9.99158 0.666992 10.2716 0.946992 10.2716 1.29199V3.71616C10.2716 4.55282 10.9516 5.23449 11.7882 5.23699H14.0816C14.4266 5.23699 14.7066 5.51699 14.7066 5.86199C14.7066 6.20699 14.4266 6.48699 14.0816 6.48699Z" fill="#D56F3E"/>
<path fill-rule="evenodd" clip-rule="evenodd" d="M7.28473 12.917C6.93973 12.917 6.65973 12.637 6.65973 12.292V7.25781C6.65973 6.91281 6.93973 6.63281 7.28473 6.63281C7.62973 6.63281 7.90973 6.91281 7.90973 7.25781V12.292C7.90973 12.637 7.62973 12.917 7.28473 12.917Z" fill="#D56F3E"/>
<path fill-rule="evenodd" clip-rule="evenodd" d="M5.33082 9.84569C5.17165 9.84569 5.01165 9.78486 4.88998 9.66319C4.64582 9.41986 4.64415 9.02486 4.88832 8.77986L6.84165 6.81652C7.07665 6.58069 7.49332 6.58069 7.72748 6.81652L9.68248 8.77986C9.92582 9.02486 9.92498 9.41986 9.68082 9.66319C9.43582 9.90652 9.03998 9.90652 8.79665 9.66152L7.28498 8.14319L5.77332 9.66152C5.65165 9.78486 5.49082 9.84569 5.33082 9.84569Z" fill="#D56F3E"/>
</svg>
